Coordinates
version=1
nRows=6
nColumns=34
inDegrees=yes

Units are S.I. units (second, meters, Newtons, ...)
If the header above contains a line with 'inDegrees', this indicates whether rotational values are in degrees (yes) or radians (no).

endheader
time	pelvis_tilt	pelvis_list	pelvis_rotation	pelvis_tx	pelvis_ty	pelvis_tz	hip_flexion_r	hip_adduction_r	hip_rotation_r	knee_angle_r	ankle_angle_r	subtalar_angle_r	mtp_angle_r	hip_flexion_l	hip_adduction_l	hip_rotation_l	knee_angle_l	ankle_angle_l	subtalar_angle_l	mtp_angle_l	lumbar_extension	lumbar_bending	lumbar_rotation	arm_flex_r	arm_add_r	arm_rot_r	elbow_flex_r	pro_sup_r	arm_flex_l	arm_add_l	arm_rot_l	elbow_flex_l	pro_sup_l
      5.93333330	     -3.39869176	      9.64452207	     -0.27909035	      0.49598600	      0.71246892	      0.00687871	     47.30704499	      4.53332451	      4.50366795	     82.35837529	     30.17640531	    -23.27726589	      0.00000000	     51.36950015	      2.36594194	    -11.50000116	      3.63608771	    -23.67651410	      0.34126074	      0.00000000	    -44.22033217	      4.53763019	     -0.00929416	     97.20586287	     -2.62401460	     69.32648490	    104.92705104	     85.60250646	     94.54170991	      2.23593066	     79.37399419	    117.33932913	     76.07893729
      5.95000000	     -3.52896924	      9.63328318	     -0.06486676	      0.49566946	      0.71194208	      0.00723839	     47.33194934	      4.35173996	      4.47771534	     81.98766577	     30.88306083	    -23.53007966	      0.00000000	     52.04230694	      2.13894083	    -11.86809943	      3.84757346	    -23.49811371	     -0.10281924	      0.00000000	    -44.49563880	      4.50863413	      0.05448889	     97.51652490	     -2.87446513	     68.93446730	    104.93817992	     85.57591193	     94.96216989	      1.98086615	     79.44156421	    117.48764164	     76.12828188
      5.96666670	     -3.56665683	      9.63026077	      0.17945027	      0.49747152	      0.71299937	      0.00754506	     46.95789141	      4.15456133	      4.38036834	     81.51734054	     32.36746196	    -22.59229499	      0.00000000	     52.41203485	      2.00429312	    -11.53395887	      3.82057275	    -23.32437369	     -0.46525191	      0.00000000	    -44.90208810	      4.43217394	      0.02285339	     97.49554021	     -2.99105721	     68.13049916	    105.48312246	     85.52347431	     95.77015085	      2.09792831	     80.19175313	    117.95711400	     76.35771887
      5.98333330	     -3.56186846	      9.61487404	      0.40790759	      0.49658526	      0.71356489	      0.00826526	     46.90855848	      4.05122775	      4.30918244	     81.24580619	     33.12619938	    -22.70590844	      0.00000000	     52.66763633	      1.88868179	    -11.83010906	      3.85121836	    -23.11757699	     -0.72404216	      0.00000000	    -45.16536600	      4.50746214	      0.02082516	     97.50177084	     -2.96433799	     67.99773063	    105.74004037	     85.52889061	     95.75232582	      2.30147473	     80.40695074	    118.06738856	     76.41686261
      6.00000000	     -3.51661427	      9.51486925	      0.82066031	      0.49742151	      0.71475779	      0.00804625	     47.01399043	      3.81719151	      3.94247117	     81.12786996	     34.14269544	    -21.71225737	      0.00000000	     52.89552748	      1.93156252	    -11.77263232	      3.83970661	    -22.75404744	     -0.78455363	      0.00000000	    -45.56884971	      4.61862345	      0.09813984	     97.52706066	     -3.29898996	     67.69150670	    107.01944880	     85.59614467	     96.41193191	      2.51296062	     80.96457358	    118.26052228	     76.66809456
      6.01666670	     -3.34843100	      9.49078864	      1.13676020	      0.49760691	      0.71511956	      0.00789828	     46.65464542	      3.73423769	      3.81725544	     80.75831961	     34.87553457	    -21.73065547	      0.00000000	     52.89052730	      2.02235617	    -12.01194427	      3.70942224	    -22.48284342	     -0.83349441	      0.00000000	    -45.79513873	      4.78240410	      0.20905493	     97.29598445	     -3.20675732	     67.90108451	    107.35673802	     85.65133226	     96.53675740	      2.71566559	     81.16570196	    118.08348221	     76.76248742
